# xmcd CD database file
#
# Track frame offsets:
#	225
#	13105
#	34479
#	49232
#	70695
#	92133
#	110303
#	128209
#	143971
#	163744
#	170508
#	184153
#	202737
#
# Disc length: 2881 seconds
#
# Revision: 0
# Processed by: cddbd v1.4PL0 Copyright (c) Steve Scherf et al.
# Submitted via: CDex 1.50Beta7
#
DISCID=b70b3e0d
DTITLE=Hank Wangford - Wake Up Dead
DYEAR=1997
DGENRE=Country
TTITLE0=Wake Up Dead
TTITLE1=Trail Of Lies
TTITLE2=Get Out
TTITLE3=Counting The Cost
TTITLE4=Home Sweet Home
TTITLE5=The Wedding Dress
TTITLE6=In The Palm Of Your Hand
TTITLE7=If You Went Away
TTITLE8=Did You See Me Wave?
TTITLE9=Chaganuga
TTITLE10=Johnny 55
TTITLE11=Mouth Of The River
TTITLE12=Simple Pleasures
EXTD=YEAR: 1997
EXTT0=
EXTT1=
EXTT2=
EXTT3=
EXTT4=
EXTT5=
EXTT6=
EXTT7=
EXTT8=
EXTT9=
EXTT10=
EXTT11=
EXTT12=
PLAYORDER=
